<?xml version="1.0" encoding="UTF-8"?> <svg xmlns="http://www.w3.org/2000/svg" width="198" height="127" viewBox="0 0 198 127" fill="none"> <path d="M79.7185 124.732L67.6493 82.4169L116.023 68.6197L128.092 110.934L79.7185 124.732Z" fill="white" stroke="#7ABBEB"></path> <path d="M116.366 68.0017L67.0312 82.0732L79.3748 125.35L128.71 111.278L116.366 68.0017Z" stroke="#7ABBEB" stroke-width="2" stroke-miterlimit="10" stroke-linecap="round" stroke-linejoin="round"></path> <path d="M104.537 117.699L92.4676 75.3837L116.029 68.6634L128.098 110.978L104.537 117.699Z" fill="#7ABBEB" stroke="#7ABBEB"></path> <path d="M91.1161 75.8122L87.7815 89.7992L63.7054 96.678L67.4113 82.503L91.1161 75.8122Z" fill="#7ABBEB" stroke="#7ABBEB"></path> <path d="M67 82.0996L63 97.3996L88.2 90.1996L91.8 75.0996L67 82.0996Z" stroke="#7ABBEB" stroke-width="2" stroke-miterlimit="10" stroke-linecap="round" stroke-linejoin="round"></path> <path d="M92.7674 75.344L116.563 68.559L127.12 78.5608L103.141 85.4394L92.7674 75.344Z" fill="white" stroke="#7ABBEB"></path> <path d="M116.7 68L128.1 78.8L103 86L91.7998 75.1L116.7 68Z" stroke="#7ABBEB" stroke-width="2" stroke-miterlimit="10" stroke-linecap="round" stroke-linejoin="round"></path> <path d="M53.5694 38.8608L64.7073 11.0142L96.5824 23.7634L85.4445 51.61L53.5694 38.8608Z" fill="white" stroke="#7ABBEB"></path> <path d="M97.2324 23.4848L64.4287 10.3643L52.9195 39.1394L85.7231 52.26L97.2324 23.4848Z" stroke="#7ABBEB" stroke-width="2" stroke-miterlimit="10" stroke-linecap="round" stroke-linejoin="round"></path> <path d="M70.0538 45.4858L81.1917 17.6392L96.569 23.7897L85.4312 51.6364L70.0538 45.4858Z" fill="#7ABBEB" stroke="#7ABBEB"></path> <path d="M79.8835 17.1465L72.4514 23.1373L56.7759 16.8758L64.4802 10.9364L79.8835 17.1465Z" fill="#7ABBEB" stroke="#7ABBEB"></path> <path d="M64.4016 10.3657L55.7764 17.015L72.5375 23.7101L80.8605 17.0012L64.4016 10.3657Z" stroke="#7ABBEB" stroke-width="2" stroke-miterlimit="10" stroke-linecap="round" stroke-linejoin="round"></path> <path d="M81.4763 17.7865L96.9653 23.9831L98.447 33.5225L82.8233 27.3007L81.4763 17.7865Z" fill="white" stroke="#7ABBEB"></path> <path d="M97.4157 23.6247L99.0755 34.311L82.3689 27.658L80.8602 17.0015L97.4157 23.6247Z" stroke="#7ABBEB" stroke-width="2" stroke-miterlimit="10" stroke-linecap="round" stroke-linejoin="round"></path> </svg> 