<?xml version="1.0" encoding="UTF-8"?> <svg xmlns="http://www.w3.org/2000/svg" width="198" height="127" viewBox="0 0 198 127" fill="none"> <path fill-rule="evenodd" clip-rule="evenodd" d="M91.2225 122.038L51.2225 119.338C44.6225 118.938 39.6224 113.138 40.0224 106.538L41.8225 79.238C42.2225 72.638 48.0225 67.638 54.6225 68.038L94.6225 70.738C101.223 71.138 106.222 76.938 105.822 83.538L104.022 110.838C103.522 117.538 97.8225 122.538 91.2225 122.038ZM77.7226 116.037L57.9226 114.737C51.3226 114.337 46.3226 108.537 46.7226 101.937L47.8226 84.9373C48.2226 78.3373 54.0226 73.3373 60.6226 73.7373L80.4226 75.0373C87.0226 75.4373 92.0226 81.2373 91.6226 87.8373L90.5225 104.837C90.0225 111.437 84.3226 116.437 77.7226 116.037ZM98.523 86.1385L97.423 86.0385C96.023 85.9385 95.0231 84.7385 95.1231 83.3385L95.2231 82.2385C95.3231 80.8385 96.523 79.8385 97.923 79.9385L99.023 80.0385C100.423 80.1385 101.423 81.3385 101.323 82.7385L101.223 83.8385C101.023 85.1385 99.823 86.2385 98.523 86.1385ZM96.6227 112.638L95.7227 112.538C94.5227 112.438 93.7227 111.438 93.7227 110.238L94.8226 93.3379C94.9226 92.1379 95.9227 91.3379 97.1227 91.3379L98.0226 91.4379C99.2226 91.5379 100.023 92.5379 100.023 93.7379L98.9226 110.638C98.8226 111.838 97.8227 112.738 96.6227 112.638Z" fill="#2A2A27"></path> <path fill-rule="evenodd" clip-rule="evenodd" d="M87.2232 50.4376L122.623 35.1376C126.623 33.4376 128.523 28.6376 126.823 24.6376L120.423 9.83765C118.723 5.73765 113.923 3.93765 109.923 5.63765L74.5232 20.9376C70.4232 22.6376 68.6232 27.4376 70.3232 31.4376L76.7232 46.2376C78.4232 50.3376 83.2232 52.1376 87.2232 50.4376ZM101.124 38.9369L104.624 37.4369C108.924 35.6369 110.924 30.5369 109.024 26.1369L107.524 22.6369C105.624 18.3369 100.524 16.3369 96.2238 18.2369L92.7238 19.7369C88.4238 21.6369 86.4238 26.7369 88.3238 31.0369L89.8238 34.5369C91.7238 38.8369 96.8238 40.8369 101.124 38.9369Z" fill="#2A2A27"></path> <path d="M79.9233 16.3376L74.9233 18.5376C74.4233 18.7376 73.8233 18.5376 73.5233 18.0376L72.9233 16.6376C72.7233 16.1376 72.9233 15.5376 73.4233 15.2376L78.4233 13.0376C78.9233 12.8376 79.5233 13.0376 79.8233 13.5376L80.4233 14.9376C80.7233 15.5376 80.5233 16.1376 79.9233 16.3376Z" fill="#2A2A27"></path> </svg> 