<?xml version="1.0" encoding="UTF-8"?> <svg xmlns="http://www.w3.org/2000/svg" width="198" height="127" viewBox="0 0 198 127" fill="none"> <g clip-path="url(#clip0)"> <path d="M111.296 106.255C110.774 106.862 110.101 107.338 109.418 107.674L74.9257 125.105C73.493 125.851 71.8008 125.979 70.2721 125.457C68.7433 124.934 67.454 123.826 66.7074 122.394L51.462 92.4164C50.5423 90.5714 50.5884 88.3696 51.5885 86.592C51.7734 86.2234 52.1206 86.1263 52.4678 86.0291C52.8257 86.0729 53.1942 86.2578 53.3566 86.5292L69.2728 117.874C69.4458 118.286 69.7492 118.547 70.1829 118.656C70.6167 118.765 71.0397 118.733 71.3869 118.636C71.7993 118.463 72.06 118.159 72.169 117.725C72.278 117.292 72.246 116.869 72.1488 116.522L55.8865 84.3521C55.8 84.1459 55.7787 83.8639 55.8332 83.647C55.8877 83.4302 56.0832 83.2026 56.3546 83.0403L88.6649 66.7674C90.0976 66.0207 91.7899 65.8927 93.3186 66.4152C94.8473 66.9377 96.1366 68.0457 96.8833 69.4784L112.129 99.4555C112.875 100.888 113.003 102.58 112.481 104.109C112.187 104.911 111.817 105.648 111.296 106.255ZM52.8424 90.0428C52.8851 90.6069 53.0581 91.0192 53.307 91.4968L68.5524 121.474C69.0502 122.429 69.8845 123.146 70.9795 123.559C71.9986 123.908 73.1268 123.822 74.0819 123.325L108.574 105.894C110.625 104.888 111.431 102.416 110.425 100.364L95.1792 70.3874C94.6814 69.4323 93.8472 68.7153 92.7522 68.3018C91.733 67.9535 90.6049 68.0388 89.6498 68.5365L58.099 84.5393L73.9393 115.819C74.7832 117.599 74.0971 119.778 72.3172 120.622C71.4273 121.044 70.4402 121.118 69.6379 120.824C68.6946 120.541 67.9362 119.89 67.5901 119.065L52.8424 90.0428Z" fill="#D5D834"></path> <path d="M84.5299 112.393L82.4787 113.399C79.9499 114.654 76.9683 113.675 75.7133 111.146L72.1318 104.113C70.8768 101.584 71.8567 98.6023 74.3855 97.3473L76.4367 96.3411C78.9656 95.0861 81.9471 96.0659 83.2022 98.5947L86.7836 105.628C88.0387 108.157 86.9936 111.214 84.5299 112.393Z" fill="#D5D834"></path> <path d="M92.8819 77.5105L67.6803 90.2672C66.519 90.8515 65.2072 90.3834 64.623 89.2221L64.201 88.3322C63.6168 87.1709 64.0848 85.8591 65.2461 85.2748L90.4477 72.5181C91.609 71.9338 92.9208 72.4019 93.505 73.5632L93.927 74.4531C94.5112 75.6144 93.978 77.0021 92.8819 77.5105Z" fill="#D5D834"></path> <path d="M97.6931 81.118C97.6279 81.1938 97.4976 81.3455 97.3566 81.3561L68.1284 96.1903C67.6509 96.4392 67.0003 96.2757 66.8166 95.7223C66.5677 95.2447 66.7312 94.5941 67.2846 94.4104L96.5128 79.5763C96.9903 79.3274 97.6409 79.4909 97.8246 80.0443C97.9976 80.4567 97.9538 80.8146 97.6931 81.118Z" fill="#D5D834"></path> <path d="M100.106 85.8285C100.041 85.9043 99.9104 86.056 99.7694 86.0667L86.1157 93.0565C85.6382 93.3054 84.9876 93.1419 84.8039 92.5885C84.555 92.1109 84.7185 91.4604 85.2719 91.2766L98.8604 84.3626C99.3379 84.1137 99.9885 84.2772 100.172 84.8306C100.41 85.1672 100.367 85.5251 100.106 85.8285Z" fill="#D5D834"></path> <path d="M102.118 89.9307C102.053 90.0065 101.922 90.1582 101.781 90.1688L88.1929 97.0829C87.7153 97.3318 87.0647 97.1683 86.881 96.6149C86.6321 96.1373 86.7956 95.4867 87.349 95.303L100.938 88.389C101.415 88.1401 102.066 88.3036 102.249 88.857C102.412 89.1284 102.379 89.6273 102.118 89.9307Z" fill="#D5D834"></path> <path d="M104.12 93.8916C104.055 93.9675 103.924 94.1191 103.783 94.1298L90.1948 101.044C89.7173 101.293 89.0667 101.129 88.883 100.576C88.6341 100.098 88.7976 99.4476 89.351 99.2639L102.939 92.3499C103.417 92.101 104.068 92.2646 104.251 92.818C104.49 93.1545 104.381 93.5882 104.12 93.8916Z" fill="#D5D834"></path> <path d="M106.187 97.7774C106.122 97.8532 105.992 98.0049 105.851 98.0156L92.2622 104.93C91.7846 105.178 91.1341 105.015 90.9504 104.462C90.7015 103.984 90.865 103.333 91.4184 103.15L105.007 96.2357C105.484 95.9868 106.135 96.1503 106.319 96.7037C106.416 97.0509 106.383 97.5498 106.187 97.7774Z" fill="#D5D834"></path> <path d="M108.037 101.608C107.972 101.684 107.841 101.836 107.7 101.847L94.1118 108.761C93.6343 109.01 92.9837 108.846 92.8 108.293C92.5511 107.815 92.7146 107.164 93.268 106.981L106.856 100.067C107.334 99.8178 107.985 99.9813 108.168 100.535C108.331 100.806 108.298 101.305 108.037 101.608Z" fill="#D5D834"></path> <path fill-rule="evenodd" clip-rule="evenodd" d="M132.894 26.3612L133.68 26.8223L130.411 32.3942L124.962 45.6356L135.405 27.8343L136.417 26.1092L134.692 25.0972L133.662 24.4934L132.894 26.3612ZM132.893 26.361L133.662 24.4932L127.904 21.1153L129.231 24.2124L132.893 26.361ZM105.491 10.2855L118.732 15.7347L105.664 8.06833L103.939 7.05633L102.927 8.78139L102.715 9.14306L104.583 9.91173L104.652 9.79339L105.491 10.2855ZM85.6975 42.1034L91.1468 28.8621L80.7099 46.6528L79.6979 48.3778L81.423 49.3898L82.4508 49.9928L83.2195 48.125L82.435 47.6648L85.6975 42.1034ZM110.633 64.2068L97.3913 58.7575L110.451 66.4187L112.176 67.4307L113.188 65.7056L113.399 65.3452L111.531 64.5766L111.463 64.6936L110.633 64.2068Z" fill="#D5D834"></path> <path fill-rule="evenodd" clip-rule="evenodd" d="M127.069 19.1663L101.612 8.68984L99.7627 7.92871L99.0016 9.77822L82.292 50.3815L81.5309 52.2311L83.3804 52.9922L114.502 65.7997L116.351 66.5608L117.113 64.7113L133.822 24.108L134.583 22.2584L134.583 22.2583L131.491 29.7718L130.418 27.1251L115.263 63.9502L84.1416 51.1427L100.851 10.5393L128.194 21.7919L127.069 19.1663Z" fill="#D5D834"></path> <path d="M129.608 27.9151L125.283 26.1352L127.063 21.8101L128.302 24.866L128.306 24.8751L128.309 24.8841L129.608 27.9151Z" fill="#D5D834" stroke="#D5D834" stroke-width="2"></path> <rect x="101.429" y="16.4121" width="20.7457" height="1.87" rx="0.935" transform="rotate(22.3687 101.429 16.4121)" fill="#D5D834"></rect> <rect x="100.337" y="19.0664" width="17.6947" height="1.87" rx="0.935" transform="rotate(22.3687 100.337 19.0664)" fill="#D5D834"></rect> <rect x="97.9873" y="25.2666" width="27.3655" height="1.87" rx="0.935" transform="rotate(22.3687 97.9873 25.2666)" fill="#D5D834"></rect> <rect x="96.8457" y="28.041" width="27.3655" height="1.87" rx="0.935" transform="rotate(22.3687 96.8457 28.041)" fill="#D5D834"></rect> <rect x="95.7041" y="30.8154" width="27.3655" height="1.87" rx="0.935" transform="rotate(22.3687 95.7041 30.8154)" fill="#D5D834"></rect> <rect x="94.5625" y="33.5898" width="27.3655" height="1.87" rx="0.935" transform="rotate(22.3687 94.5625 33.5898)" fill="#D5D834"></rect> <rect x="93.4209" y="36.3643" width="15.9823" height="1.87" rx="0.935" transform="rotate(22.3687 93.4209 36.3643)" fill="#D5D834"></rect> <rect x="100.902" y="48.0938" width="15.9823" height="1.87" rx="0.935" transform="rotate(22.3687 100.902 48.0938)" fill="#D5D834"></rect> <rect x="104.015" y="52.6182" width="11.3833" height="1.87" rx="0.935" transform="rotate(22.3687 104.015 52.6182)" fill="#D5D834"></rect> </g> <defs> <clipPath id="clip0"> <rect width="198" height="127" fill="white"></rect> </clipPath> </defs> </svg> 