<?xml version="1.0" encoding="UTF-8"?> <svg xmlns="http://www.w3.org/2000/svg" width="198" height="127" viewBox="0 0 198 127" fill="none"> <g clip-path="url(#clip0)"> <path d="M68.062 43.8421L74.0619 40.2404C75.0928 39.6804 75.4444 38.3349 74.8248 37.4266L72.6511 33.7902C72.0912 32.7593 70.7456 32.4077 69.8373 33.0273L63.8375 36.6291C62.8066 37.189 62.455 38.5346 63.0746 39.4429L65.2482 43.0793C65.6856 44.0505 67.0311 44.402 68.062 43.8421Z" fill="#2F6099"></path> <path d="M75.7029 39.673C75.4642 40.1635 75.1028 40.5943 74.4962 40.9057L68.4964 44.5074C67.0412 45.3159 65.1454 44.8482 64.2773 43.5156L62.1036 39.8792C61.2952 38.424 61.7629 36.5282 63.0954 35.6601L69.0953 32.0584C70.5505 31.25 72.4463 31.7177 73.2548 33.1729L75.4283 36.8092C76.1706 37.7772 76.1207 38.8146 75.7029 39.673ZM67.5653 42.9926L73.5652 39.3909C74.1718 39.0794 74.2249 38.3469 74.0361 37.8L71.8625 34.1636C71.5511 33.557 70.8186 33.5039 70.2717 33.6927L64.2718 37.2944C63.6652 37.6058 63.612 38.3383 63.8008 38.8852L65.9745 42.5216C66.2859 43.1282 66.9587 43.304 67.5653 42.9926Z" fill="#2F6099"></path> <path d="M82.3674 41.2482L64.1855 52.1163C61.2154 53.8558 60.2801 57.6474 62.0196 60.6175L71.274 76.1939C72.5165 78.3153 74.906 79.3267 77.1002 79.1813L86.1658 94.2107C83.9911 96.1857 83.4768 99.4239 84.9678 101.97L91.5516 113.061L95.5277 119.85L99.0664 125.667C99.812 126.94 101.34 127.229 102.553 126.606L108.069 123.375C109.342 122.63 109.63 121.102 109.008 119.889L108.696 119.282L110.393 118.288L110.705 118.895C111.45 120.168 112.978 120.456 114.191 119.833L118.252 117.411C119.525 116.666 119.814 115.138 119.191 113.925L118.879 113.318L120.576 112.324L120.888 112.931C121.633 114.204 123.161 114.492 124.375 113.869L129.89 110.639C131.163 109.893 131.452 108.365 130.829 107.152L127.29 101.335L123.314 94.5458L116.73 83.4544C115.239 80.9086 112.117 79.8441 109.383 80.7882L100.317 65.7587C101.577 63.7935 101.733 61.2911 100.491 59.1696L91.2365 43.5933C89.1291 40.4441 85.3375 39.5087 82.3674 41.2482ZM72.4948 70.5695L67.1535 61.5995C65.911 59.478 66.3092 56.7901 67.937 55.0039C68.5403 54.3875 69.5777 54.4374 70.1344 55.1634C70.3829 55.5877 70.3298 56.3202 69.8458 56.6913C69.0037 57.7982 68.7748 59.2035 69.4573 60.2941L74.7985 69.264C75.11 69.8706 74.8745 70.666 74.2679 70.9775C73.6613 71.2889 72.8062 71.1761 72.4948 70.5695ZM106.837 82.2793L88.4728 93.2102L79.0958 77.5741L97.46 66.6432L106.837 82.2793Z" fill="#2F6099"></path> <path fill-rule="evenodd" clip-rule="evenodd" d="M139.809 31.8153C141.847 26.8779 142.694 20.6994 140.742 16.0288C139.641 13.3942 137.65 11.2546 134.553 10.1562C131.492 9.07098 127.456 9.03768 122.289 10.3644C121.112 10.6664 120.504 12.0135 121.112 13.0981L123.481 17.3287C123.94 18.1491 124.885 18.4583 125.7 18.234C127.728 17.6762 130.688 17.6987 133.051 19.5421C135.342 21.3294 137.344 25.0439 137.152 32.4162C136.968 32.6038 136.811 32.8237 136.689 33.0728C136.079 34.32 136.596 35.8255 137.843 36.4353C138.714 36.8611 139.154 37.8504 138.887 38.7824L132.854 59.8314C132.406 61.3937 133.144 63.0522 134.604 63.7661L143.522 68.1263C144.965 68.8314 146.705 68.4147 147.671 67.1326L160.924 49.5508C161.509 48.7737 162.564 48.5212 163.438 48.9486C164.685 49.5584 166.191 49.0416 166.801 47.7943C167.41 46.547 166.894 45.0416 165.646 44.4318L140.051 31.9185C139.972 31.8795 139.891 31.8452 139.809 31.8153ZM133.852 12.1306C131.37 11.2502 127.875 11.1306 123.08 12.3251L125.243 16.1877C127.686 15.5419 131.335 15.5474 134.339 17.8903C136.647 19.6903 138.413 22.7432 139.026 27.5428C139.979 23.7941 140.07 19.8527 138.809 16.8366C137.916 14.6985 136.345 13.0144 133.852 12.1306Z" fill="#2F6099"></path> <path d="M30.7891 29.2427L30.3219 29.0644C29.7587 28.9136 29.0171 29.2299 28.8939 29.8893L15.059 77.1212C14.9082 77.6844 15.2246 78.426 15.8839 78.5493L16.3511 78.7276C16.9143 78.8784 17.6559 78.5621 17.7792 77.9027L31.5864 30.5747C31.7648 30.1076 31.3523 29.3935 30.7891 29.2427Z" fill="#2F6099"></path> <path d="M14.6603 76.8193L28.3854 29.9309C28.7145 28.9005 29.717 28.4055 30.7198 28.6385L30.8435 28.7071C31.3106 28.8854 31.7091 29.1874 31.9429 29.6406C32.1766 30.0937 32.2181 30.6019 32.1359 31.0415L18.4108 77.9299C18.2325 78.3971 17.9305 78.7956 17.4774 79.0293C17.0242 79.2631 16.516 79.3045 16.0764 79.2224L15.9527 79.1537C15.9527 79.1537 15.9527 79.1537 15.8566 79.1813C14.9223 78.8246 14.3312 77.8497 14.6603 76.8193ZM30.4869 29.6413L30.3632 29.5727C29.9236 29.4905 29.4704 29.7243 29.3882 30.1639L15.6632 77.0523C15.581 77.4919 15.8147 77.945 16.2543 78.0272L16.378 78.0959C16.8176 78.178 17.2708 77.9443 17.3529 77.5047L31.078 30.6163C31.1877 30.2728 30.954 29.8197 30.4869 29.6413Z" fill="#2F6099"></path> <path d="M51.6352 21.4031L51.5937 20.8948C51.6209 20.263 51.0437 19.7001 50.4393 19.7691L39.066 20.0086C38.4341 19.9815 37.8712 20.5587 37.9402 21.163L37.9817 21.6712C37.9546 22.3031 38.5318 22.866 39.1361 22.797L50.5094 22.5575C51.1413 22.5846 51.7042 22.0074 51.6352 21.4031Z" fill="#2F6099"></path> <path d="M38.0925 22.7833C37.694 22.4813 37.5564 22.0007 37.5149 21.4924L37.4874 21.3963C37.4459 20.8881 37.6243 20.421 38.0499 20.0911C38.3519 19.6926 38.8326 19.555 39.3408 19.5135L50.3021 19.2879C51.346 19.3011 52.1981 20.0974 52.1849 21.1413L52.2124 21.2374C52.1992 22.2814 51.403 23.1334 50.359 23.1203L39.3977 23.3458C39.1779 23.3047 38.9857 23.3598 38.7384 23.2225C38.5186 23.1814 38.2713 23.0442 38.0925 22.7833ZM50.2888 20.3319L39.3276 20.5574C39.1078 20.5163 38.9431 20.6675 38.7783 20.8187C38.6136 20.9699 38.5725 21.1897 38.5314 21.4095L38.5589 21.5056C38.5178 21.7254 38.669 21.8902 38.8201 22.0549C38.9713 22.2197 39.1911 22.2608 39.4109 22.3019L50.3722 22.0763C50.7843 22.0624 51.2099 21.7325 51.1685 21.2243L51.1409 21.1281C51.1545 20.8122 50.8521 20.4827 50.6048 20.3454C50.4812 20.2768 50.385 20.3044 50.2888 20.3319Z" fill="#2F6099"></path> <path d="M36.6517 23.9245C36.7754 23.9931 36.8716 23.9656 37.0638 23.9105C37.3522 23.8279 37.4619 23.4845 37.2832 23.2236L36.1281 20.6418C36.0455 20.3534 35.702 20.2437 35.4411 20.4224C35.1527 20.505 35.043 20.8484 35.2217 21.1093L36.3769 23.6911C36.4044 23.7872 36.5281 23.8559 36.6517 23.9245Z" fill="#2F6099"></path> <path d="M35.3191 24.7218C35.4428 24.7904 35.6351 24.7353 35.7312 24.7078C35.9921 24.5291 36.1018 24.1857 35.9506 24.0209L34.507 21.5217C34.3283 21.2608 33.9848 21.1511 33.8201 21.3023C33.5592 21.481 33.4494 21.8245 33.6006 21.9892L35.0442 24.4884C35.0718 24.5845 35.1954 24.6532 35.3191 24.7218Z" fill="#2F6099"></path> <path d="M33.9735 25.8349C34.0972 25.9036 34.2895 25.8485 34.4542 25.6973C34.7151 25.5186 34.7287 25.2027 34.55 24.9418L32.7768 22.745C32.5981 22.4841 32.2822 22.4705 32.0213 22.6492C31.7605 22.8279 31.7468 23.1439 31.9255 23.4048L33.6987 25.6016C33.7537 25.7939 33.8499 25.7663 33.9735 25.8349Z" fill="#2F6099"></path> <path d="M32.999 27.1538C33.2188 27.1949 33.5072 27.1123 33.5759 26.9886C33.7131 26.7413 33.7266 26.4254 33.4793 26.2882L31.1433 24.6685C30.896 24.5313 30.5801 24.5177 30.4428 24.7651C30.3056 25.0124 30.2921 25.3283 30.5394 25.4655L32.8754 27.0852C32.8754 27.0852 32.8753 27.0852 32.999 27.1538Z" fill="#2F6099"></path> <path d="M32.2993 28.7063C32.5466 28.8436 32.8075 28.6649 32.9448 28.4175C33.082 28.1702 32.9719 27.7857 32.6559 27.7721L30.0455 26.6471C29.7982 26.5099 29.4137 26.62 29.4001 26.9359C29.2629 27.1832 29.3729 27.5678 29.6889 27.5814L32.2993 28.7063C32.2718 28.6102 32.2993 28.7063 32.2993 28.7063Z" fill="#2F6099"></path> </g> <defs> <clipPath id="clip0"> <rect width="198" height="127" fill="white"></rect> </clipPath> </defs> </svg> 