<?xml version="1.0" encoding="UTF-8"?> <svg xmlns="http://www.w3.org/2000/svg" width="198" height="127" viewBox="0 0 198 127" fill="none"> <path fill-rule="evenodd" clip-rule="evenodd" d="M101.068 39.9583L107.797 41.8858C108.328 42.0379 108.635 42.5916 108.483 43.1225L107.932 45.0452L99.2802 42.567L99.8309 40.6443C99.983 40.1134 100.537 39.8062 101.068 39.9583ZM96.8068 43.939L97.3575 42.0163L97.9083 40.0936C98.3645 38.5008 100.026 37.5794 101.618 38.0356L108.348 39.9631C109.941 40.4194 110.862 42.0804 110.406 43.6732L109.855 45.5959L109.304 47.5186L105.391 61.1804C105.119 62.1301 105.669 63.1206 106.618 63.3927C107.321 63.5941 108.076 63.3471 108.525 62.769L109.838 61.0754C110.589 60.1059 111.855 59.6916 113.035 60.0294L128.356 64.418C129.536 64.7558 130.39 65.7775 130.515 66.9979L130.732 69.1298C130.806 69.8575 131.316 70.4668 132.019 70.6682C132.969 70.9402 133.959 70.3908 134.231 69.4411L138.145 55.7793L138.695 53.8566L139.246 51.9339C139.702 50.3411 141.363 49.4198 142.956 49.876L149.685 51.8035C151.278 52.2597 152.2 53.9208 151.743 55.5136L151.193 57.4363L150.642 59.3589L132.193 123.769C131.737 125.362 130.076 126.283 128.483 125.827L80.4159 112.059C78.8231 111.603 77.9017 109.942 78.3579 108.349L80.6775 100.251L80.6277 100.236L81.1784 98.3138L81.2282 98.328L81.7789 96.4053L81.7291 96.3911L83.3813 90.623L83.431 90.6373L96.8068 43.939ZM82.6002 100.801L80.2806 108.9C80.1285 109.431 80.4357 109.984 80.9666 110.136L129.034 123.904C129.565 124.056 130.118 123.749 130.27 123.218L132.59 115.12L82.6002 100.801ZM133.141 113.197L83.1509 98.8787L83.7016 96.956L133.691 111.275L133.141 113.197ZM148.719 58.8082L135.344 105.507L85.3537 91.188L98.7295 44.4897L107.382 46.9679L103.468 60.6296C102.892 62.6413 104.056 64.7391 106.068 65.3153C107.557 65.7419 109.156 65.2188 110.105 63.9944L111.418 62.3008C111.669 61.9776 112.091 61.8395 112.484 61.9521L127.806 66.3407C128.199 66.4533 128.484 66.7939 128.525 67.2007L128.742 69.3326C128.899 70.8739 129.979 72.1643 131.468 72.5909C133.48 73.1671 135.578 72.0034 136.154 69.9918L140.067 56.33L148.719 58.8082ZM149.821 54.9629L149.27 56.8855L140.618 54.4073L141.169 52.4847C141.321 51.9537 141.874 51.6466 142.405 51.7987L149.135 53.7262C149.666 53.8782 149.973 54.4319 149.821 54.9629ZM115.473 65.929C114.942 65.7769 114.389 66.084 114.237 66.615C114.085 67.1459 114.392 67.6996 114.923 67.8517L122.613 70.0545C123.144 70.2066 123.698 69.8995 123.85 69.3686C124.002 68.8376 123.695 68.2839 123.164 68.1319L115.473 65.929Z" fill="#29834D"></path> <path fill-rule="evenodd" clip-rule="evenodd" d="M25.5115 20.0019C26.168 20.1709 26.3551 20.064 27.1569 19.0616C28.2821 17.6545 28.5943 17.5383 30.361 17.8699L31.78 18.1364L32.5566 17.0535C33.5397 15.6829 34.2358 15.4295 35.7987 15.8733C36.4852 16.0683 37.1615 16.0911 37.3016 15.9241C37.4419 15.757 37.8177 15.2497 38.1371 14.7964C38.9156 13.6916 39.5532 13.5037 41.1814 13.8987L42.551 14.231L43.3723 13.0857C44.3488 11.7242 44.9546 11.4507 46.2653 11.7802C46.8031 11.9154 47.4188 12.0547 47.6342 12.0898C47.8493 12.125 48.347 11.6665 48.7401 11.0709C49.6335 9.71768 50.3362 9.44964 51.9489 9.84774L53.2196 10.161L54.3352 8.87936L55.4508 7.59743L57.1435 7.8429C58.6307 8.05855 58.8854 8.01409 59.2425 7.47823C59.7855 6.66296 60.6544 6.37469 61.5271 6.71963C62.08 6.938 62.4019 7.4313 62.9414 8.88517C63.3256 9.92044 64.7134 12.477 66.0253 14.5662C72.9788 25.638 77.2007 37.1196 78.9961 49.841C79.2853 51.8902 79.8426 54.4305 80.2344 55.4864C81.2489 58.2203 80.4865 59.6456 78.3095 59.085C77.554 58.8901 77.4345 58.9587 76.67 60.0248C75.653 61.4428 75.3203 61.5713 73.5342 61.2359L72.1152 60.9694L71.3386 62.0523C70.3613 63.4151 69.8228 63.6119 68.1699 63.2109L66.8471 62.8901L65.8849 64.0588C64.6836 65.5184 64.4084 65.6182 62.7137 65.2071L61.3442 64.8748L60.5229 66.0201C59.5066 67.4372 59.2329 67.541 57.3703 67.2184L55.8787 66.9603L55.0852 68.0664C54.0856 69.4607 53.5597 69.6509 51.8534 69.2372L50.4838 68.905L49.6625 70.0502C48.6484 71.4641 48.371 71.5707 46.5364 71.2533C45.2428 71.0294 45.0228 71.0719 44.6587 71.6187C44.0731 72.4975 43.1073 72.7717 42.2156 72.3118C41.6201 72.0046 41.1462 71.2415 40.0834 68.8776C39.3319 67.2061 38.1405 64.9469 37.4362 63.8571C31.3602 54.4551 26.5386 41.4203 25.0846 30.4665C24.923 29.2499 24.3588 26.8226 23.8309 25.0724C23.0749 22.5671 22.9404 21.7186 23.1977 21.0819C23.5773 20.1423 24.4592 19.7309 25.5115 20.0019ZM33.6864 18.6698C32.4828 20.1322 32.2053 20.2339 30.5305 19.8277C29.788 19.6475 29.1428 19.5214 29.0967 19.5474C29.0506 19.5735 28.6738 20.0861 28.2589 20.6868C27.4784 21.8169 26.417 22.4285 25.9126 22.0384C25.2567 21.5308 25.1003 22.0992 25.5571 23.3303L26.0435 24.6411L43.9485 17.9969L61.8534 11.3526L61.3554 10.0106C60.9236 8.84687 60.7997 8.72183 60.4216 9.06894C59.3812 10.0251 58.9773 10.1318 57.5981 9.81509L56.1383 9.4799L55.3208 10.6201C54.3007 12.0422 53.7772 12.2405 52.1077 11.8353C51.3783 11.6585 50.6687 11.6478 50.5306 11.812C50.3925 11.9763 50.0185 12.4813 49.6992 12.9345C48.9293 14.0265 48.2755 14.2301 46.7477 13.8531L45.477 13.5399L44.3614 14.8215L43.2459 16.1034L41.5641 15.8595L39.8825 15.6159L39.1237 16.6823C38.1615 18.0352 37.4537 18.2912 35.8972 17.8494L34.6527 17.496L33.6864 18.6698ZM67.6166 20.9791C65.4354 17.1133 63.4829 13.9961 62.9424 13.5169C62.5109 13.1342 61.3241 13.5375 44.4635 19.7942L26.4456 26.4804L26.7291 28.6122C28.2655 40.1714 31.8392 50.547 37.7865 60.7155C38.7937 62.438 39.9321 64.29 40.3162 64.8309L41.0142 65.8146L59.19 59.0699L77.3659 52.3251L77.256 51.1128C77.0739 49.1041 75.8702 42.9931 74.9387 39.3483C73.8314 35.0154 69.7282 24.7219 67.6166 20.9791ZM36.9785 33.0778C38.429 31.4018 41.2852 28.9971 43.0898 27.9334C45.2774 26.6437 50.991 24.8569 53.5015 24.6776C58.7807 24.3003 64.1477 25.9062 67.1699 28.7673C68.516 30.0414 68.7896 30.4944 69.7058 32.9631C71.0285 36.5277 70.9167 38.5779 69.1971 42.2895C63.8063 53.9247 45.051 58.5275 36.6211 50.2837C35.4065 49.0959 35.0773 48.5354 34.1894 46.1427C33.2972 43.7383 33.1851 43.1141 33.3336 41.3834C33.5351 39.0411 35.3011 35.017 36.9785 33.0778ZM77.9826 57.0674C78.6385 57.575 78.7949 57.0066 78.3381 55.7755L77.8516 54.4647L59.9467 61.1089L42.0418 67.7532L42.5282 69.064C42.985 70.295 43.4744 70.6238 43.6403 69.8113C43.7672 69.1912 44.9602 68.9593 46.3231 69.29L47.6357 69.6082L48.5226 68.484C49.6456 67.0602 50.1478 66.8728 51.7786 67.2682L53.0957 67.5877L53.8858 66.4862C54.8742 65.1083 55.5406 64.8561 57.1475 65.2527L58.4181 65.5659L59.5338 64.2843L60.6493 63.0024L62.3311 63.2463L64.0127 63.4899L64.7714 62.4235C65.7341 61.0698 66.4415 60.8145 68.0014 61.2574C68.6879 61.4524 69.3642 61.4752 69.5043 61.3082C69.6446 61.1411 70.0204 60.6338 70.3398 60.1806C71.1127 59.0841 71.7556 58.888 73.3273 59.2691L74.6399 59.5874L75.5268 58.4632C76.4599 57.2801 77.4963 56.6911 77.9826 57.0674ZM54.2172 32.6313C54.7414 32.0643 55.531 31.3574 55.9719 31.0605C56.9526 30.4 58.6097 30.0293 59.9276 30.1756C61.2365 30.3209 62.5136 31.6989 62.841 33.3193C63.1524 34.8611 62.5164 37.5515 61.5041 38.9748C60.6438 40.1842 58.2212 41.4381 56.3855 41.6242C55.3273 41.7315 55.2111 41.8413 54.4695 43.4371C53.457 45.6157 52.4015 46.4422 49.4895 47.3366C45.9404 48.4266 43.3965 47.8113 41.2123 45.3342C39.4065 43.2864 39.3499 40.0328 41.0878 38.1782C42.1505 37.0438 45.5694 35.7443 48.7451 35.2671C51.3488 34.8762 52.7791 34.1871 54.2172 32.6313ZM59.8702 32.3442C61.2199 33.3321 60.9076 36.7442 59.3335 38.2059C58.3546 39.1146 55.9999 40.071 55.5666 39.7356C55.1825 39.4387 55.8713 35.0935 56.5281 33.6696C57.2115 32.1878 58.7974 31.5589 59.8702 32.3442ZM48.9662 37.3085C50.3159 37.1066 51.9152 36.6629 52.675 36.2789C53.4096 35.9079 54.037 35.6747 54.0692 35.7615C54.1964 36.1044 53.3833 40.6849 52.958 42.0216C52.7095 42.8028 52.2021 43.7742 51.8307 44.1798C50.9474 45.1446 48.2098 46.1462 46.6193 46.0862C42.9846 45.9493 40.5696 42.7969 42.0785 40.1597C42.5837 39.2769 42.9771 39.0043 44.6345 38.3896C45.7117 37.9899 47.6611 37.5035 48.9662 37.3085Z" fill="#29834D"></path> </svg> 