<svg width="579" height="391" viewBox="0 0 579 391" fill="none" xmlns="http://www.w3.org/2000/svg">
<g clip-path="url(#clip0_15_326)">
<path d="M12.3889 119.312C11.3292 120.69 10.5158 122.305 9.99752 124.062C9.47932 125.819 9.26666 127.683 9.37252 129.539C9.60918 133.27 10.5701 136.888 12.181 140.113C15.1194 146.432 20.6409 151.577 25.9284 155.207C28.9535 148.048 27.09 139.018 25.9284 134.509C24.0388 127.35 16.9657 115.866 12.4236 119.271" fill="#6ABE8B"/>
<path d="M24.2474 168.85C23.9108 166.8 23.1199 164.891 21.9552 163.317C20.7906 161.744 19.2935 160.562 17.6163 159.892C15.9336 159.251 14.1597 159.012 12.3978 159.188C10.6359 159.362 8.92113 159.95 7.35344 160.915C5.89718 161.784 4.4496 163.083 4.10288 165.006C3.98728 165.895 4.07312 166.806 4.35171 167.645C4.6302 168.484 5.09169 169.22 5.68912 169.782C6.90631 170.889 8.35116 171.595 9.87577 171.827C15.0766 172.849 20.1821 172.768 24.2474 168.881" fill="#6ABE8B"/>
<path d="M37.3776 186.225C37.1975 185.777 36.9828 185.349 36.7361 184.947L34.8813 181.542C33.2863 178.719 31.0846 174.638 27.5654 171.315C24.6179 168.454 21.079 166.57 17.3111 165.855C16.1634 165.653 14.9992 165.615 13.8439 165.742C13.4365 165.742 13.1244 165.864 12.9164 165.895C12.7083 165.925 12.5956 165.977 12.5956 165.997C14.1465 165.879 15.7034 165.951 17.2417 166.212C20.9304 167.031 24.3834 168.938 27.2793 171.754C30.7466 174.976 32.9569 178.974 34.6125 181.746C35.436 183.148 36.1034 184.292 36.5802 185.059C36.8162 185.475 37.0832 185.865 37.3776 186.225Z" fill="#E0E0E0"/>
<path d="M17.1127 128.65C17.1465 128.862 17.1957 129.071 17.2601 129.274C17.3988 129.723 17.5634 130.296 17.7715 131.022C18.2223 132.535 18.8983 134.724 19.7478 137.414C21.4814 142.793 23.8911 150.187 26.7429 158.276C29.5947 166.366 32.3251 173.615 34.3621 178.842C35.3763 181.449 36.2171 183.556 36.8064 184.978C37.0925 185.662 37.3265 186.204 37.4999 186.634C37.5743 186.831 37.6643 187.019 37.7686 187.196C37.726 186.988 37.665 186.787 37.5867 186.594C37.4219 186.153 37.2225 185.57 36.9625 184.896C36.399 183.362 35.6103 181.254 34.6481 178.667C32.6892 173.411 30.0107 166.14 27.1589 158.051C24.3072 149.962 21.8195 142.599 20.0426 137.261C19.1758 134.633 18.4475 132.485 17.9361 130.931C17.6934 130.224 17.5027 129.652 17.3468 129.212C17.2886 129.014 17.21 128.825 17.1127 128.65Z" fill="#E0E0E0"/>
<path d="M33.7802 168.911C32.9491 164.615 32.9984 160.148 33.924 155.879C34.8496 151.61 36.6249 147.664 39.1024 144.367C40.3679 142.71 42.2316 141.125 44.0084 141.882C45.7854 142.638 46.3748 145.278 46.4095 147.517C46.4133 152.189 45.2448 156.759 43.0514 160.65C40.858 164.541 37.7377 167.578 34.0835 169.381" fill="#6ABE8B"/>
<path d="M40.5682 151.045C40.2525 151.353 39.9623 151.696 39.7014 152.068C39.39 152.469 39.1005 152.892 38.8346 153.336C38.4481 153.901 38.0892 154.492 37.7597 155.105C37.3459 155.833 36.9669 156.587 36.6243 157.365C36.2117 158.254 35.8413 159.169 35.5147 160.106C34.783 162.256 34.2569 164.496 33.9458 166.784C33.6676 169.084 33.6152 171.414 33.7898 173.728C33.8689 174.731 33.9991 175.729 34.1798 176.713C34.3224 177.578 34.5076 178.431 34.7346 179.27C34.9123 179.964 35.1206 180.647 35.3587 181.315C35.5177 181.831 35.7058 182.333 35.922 182.819C36.0821 183.247 36.2736 183.657 36.4942 184.046C36.5896 184.046 35.7835 182.236 35.0379 179.168C34.8336 178.334 34.6686 177.487 34.5439 176.632C34.3782 175.656 34.2624 174.669 34.1971 173.676C34.0452 171.405 34.1062 169.121 34.3792 166.865C34.6867 164.613 35.1952 162.406 35.8961 160.279C36.2065 159.356 36.5567 158.452 36.9449 157.569C37.2729 156.791 37.6346 156.034 38.0285 155.299C39.4846 152.579 40.6375 151.117 40.5682 151.045Z" fill="#E0E0E0"/>
<path d="M551.02 55.5507C551.02 55.5507 558.994 58.6187 551.262 78.7547C543.53 98.8906 538.009 109.035 538.009 109.035C538.009 109.035 536.683 113.688 539.977 114.22C543.27 114.752 550.379 112.993 552.034 117.626C553.767 122.432 550.915 127.207 544.978 131.585C539.041 135.962 526.324 146.126 525.181 147.057C524.036 147.989 522.979 150.125 525.181 150.943C527.382 151.761 543.609 152.815 542.708 161.906C541.806 170.998 523.525 179.935 521.584 180.969C519.641 182.002 519.164 183.014 519.381 184.333C519.598 185.652 525.085 185.355 529.688 185.918C534.291 186.481 539.561 188.025 538.676 193.2C537.793 198.374 527.217 209.736 500.641 214.306L488.211 215.473L480.939 203.436C466.715 176.561 467.227 159.707 470 155.566C472.773 151.425 477.194 155.137 480.514 158.94C483.834 162.745 487.232 167.838 488.211 167.193C489.191 166.549 489.573 165.486 488.956 163.041C488.341 160.597 482.369 138.355 487.648 131.687C492.927 125.02 504.118 138.927 506.059 140.39C508.001 141.853 508.702 139.469 508.564 137.875C508.425 136.278 506.769 118.229 505.764 110.058C504.759 101.887 506.024 96.2419 510.228 94.7181C514.284 93.1945 517.761 100.752 520.231 103.37C522.702 105.988 524.86 101.785 524.86 101.785C524.86 101.785 527.816 90.2594 535.859 70.2564C543.903 50.2534 551.176 55.6428 551.176 55.6428" fill="#77D09A"/>
<path d="M487.709 218.959C493.56 204.243 503.589 177.879 512.326 155.289C521.064 132.699 528.952 112.338 534.742 97.5297L541.624 80.0935L543.462 75.3177L543.938 74.0804L544.094 73.6508C544.094 73.6508 544.025 73.7838 543.903 74.0598L543.392 75.2769L541.459 79.9913C539.786 84.0818 537.395 90.0337 534.473 97.3763C528.613 112.092 520.664 132.504 511.937 155.085C503.208 177.665 493.213 204.049 487.423 218.805" fill="#E0E0E0"/>
<path d="M542.144 120.551C541.845 120.625 541.553 120.738 541.277 120.889C540.739 121.124 539.959 121.503 539.005 121.973C537.091 122.914 534.481 124.305 531.629 125.9L524.331 129.99L522.112 131.218C521.831 131.345 521.564 131.51 521.314 131.709C521.612 131.636 521.903 131.527 522.181 131.381C522.727 131.136 523.498 130.767 524.452 130.277C526.359 129.305 528.951 127.884 531.803 126.288L539.127 122.198C539.994 121.707 540.747 121.308 541.346 120.981C541.624 120.871 541.891 120.727 542.144 120.551Z" fill="#E0E0E0"/>
<path d="M520.431 130.849C520.534 130.849 518.342 124.324 515.541 116.388C512.742 108.452 510.34 102.071 510.289 102.071C510.236 102.071 512.378 108.585 515.186 116.521C517.995 124.457 520.335 130.89 520.431 130.849Z" fill="#E0E0E0"/>
<path d="M508.374 166.232C508.221 165.915 508.038 165.621 507.828 165.352L506.259 163.052C504.941 161.108 503.122 158.419 501.206 155.362C499.29 152.303 497.635 149.471 496.447 147.406L495.043 144.971C494.893 144.653 494.706 144.361 494.488 144.102C494.604 144.437 494.746 144.759 494.913 145.063C495.216 145.666 495.658 146.536 496.222 147.589C497.349 149.696 498.969 152.569 500.893 155.638C502.818 158.705 504.673 161.364 506.094 163.256C506.788 164.208 507.351 164.964 507.759 165.465C507.94 165.746 508.147 166.003 508.374 166.232Z" fill="#E0E0E0"/>
<path d="M529.748 162.019C529.458 161.997 529.167 162.016 528.882 162.079L526.584 162.427C524.643 162.734 521.973 163.194 519.034 163.726C516.097 164.258 513.418 164.748 511.493 165.168L509.222 165.649C508.926 165.694 508.636 165.775 508.355 165.894C508.645 165.916 508.937 165.897 509.222 165.834L511.519 165.486C513.452 165.179 516.131 164.719 519.069 164.187C522.008 163.655 524.678 163.163 526.61 162.745L528.882 162.264C529.177 162.219 529.468 162.136 529.748 162.019Z" fill="#E0E0E0"/>
<path d="M522.459 194.857C522.096 194.847 521.732 194.876 521.375 194.949L518.428 195.379C515.949 195.757 512.525 196.319 508.737 196.964C504.949 197.607 501.542 198.211 499.063 198.671L496.142 199.244C495.781 199.295 495.424 199.384 495.076 199.51C495.439 199.528 495.803 199.497 496.159 199.417L499.106 198.988C501.586 198.609 505.018 198.058 508.797 197.413C512.577 196.77 515.992 196.166 518.471 195.696L521.392 195.133C521.753 195.078 522.111 194.985 522.459 194.857Z" fill="#E0E0E0"/>
<path d="M495.7 199.181C495.514 198.778 495.293 198.398 495.042 198.046L493.144 195.05C491.54 192.513 489.338 189.006 486.997 185.048C484.657 181.091 482.612 177.45 481.147 174.821L479.413 171.682C479.214 171.289 478.991 170.913 478.745 170.558C478.889 170.983 479.069 171.392 479.283 171.774C479.656 172.551 480.211 173.646 480.921 174.996C482.326 177.696 484.328 181.367 486.677 185.335C489.026 189.302 491.262 192.779 492.927 195.265C493.793 196.512 494.443 197.504 494.92 198.179C495.155 198.539 495.416 198.874 495.7 199.181Z" fill="#E0E0E0"/>
<path d="M267.695 174.519C289.902 161.337 298.258 131.261 300.858 103.384C301.291 98.7308 302.324 93.9243 300.954 89.5371C299.584 85.15 295.571 81.6422 291.817 82.9921C288.705 84.117 286.947 87.9008 284.883 90.9278C282.16 94.9659 278.528 98.0174 274.404 99.7329C271.716 100.837 268.509 101.246 266.239 99.2113C263.127 96.4399 263.404 90.8461 263.994 86.2441C265.126 77.6744 266.229 69.1011 267.305 60.5245C267.894 55.9226 268.483 51.2185 267.807 46.6472C267.131 42.076 264.946 37.5456 261.384 35.6844C257.821 33.8232 252.916 35.5719 251.581 39.9386C251.026 41.759 251.104 43.7633 250.766 45.6552C250.428 47.5471 249.405 49.5414 247.801 49.8071C246.198 50.073 244.776 48.5084 243.779 46.9642C240.312 41.626 238.319 35.1731 236.49 28.7815C234.661 22.39 232.936 15.8655 229.902 10.1693C226.868 4.47318 222.3 -0.404857 216.761 -1.70363C211.223 -3.00239 204.756 0.0246494 202.555 6.25259C200.352 12.4805 202.745 19.639 205.588 25.4988C209.803 34.1833 215.059 42.1052 221.19 49.0197C222.292 50.2572 223.496 51.5968 223.791 53.3864C224.259 56.6078 221.425 59.2361 218.729 59.7984C215.678 60.453 212.566 59.5531 209.471 59.461C206.377 59.3689 202.884 60.3813 201.315 63.5515C199.139 67.9796 201.869 73.4917 204.782 77.2755C210.565 84.8733 217.415 91.2387 225.031 96.0923C227.753 97.8206 230.639 99.4262 232.667 102.228C234.695 105.03 235.58 109.387 233.786 112.383C231.991 115.379 228.264 115.819 225.343 114.653C222.422 113.488 219.96 111.095 217.246 109.325C212.176 106.022 205.198 105.235 201.089 110.164C198.393 113.375 197.579 118.345 198.194 122.824C198.81 127.303 200.673 131.394 202.719 135.218C209.853 148.585 219.691 160.038 231.514 167.258C243.337 174.478 254.693 177.812 267.711 174.581" fill="#6ABE8B"/>
<path d="M289.289 158.132C287.225 142.356 284.397 126.731 280.82 111.336L278.072 99.197C277.162 95.219 276.261 91.2715 275.177 87.4774C273.084 80.1964 270.65 73.0576 267.887 66.0939C265.287 59.416 262.626 53.1984 260.086 47.4101C257.546 41.6219 255.084 36.2735 252.675 31.5182C248.891 23.9723 244.607 16.7914 239.863 10.0425C238.191 7.66997 236.838 5.87011 235.911 4.66339L234.88 3.39531C234.764 3.23872 234.64 3.09179 234.506 2.95557C234.597 3.13723 234.703 3.30549 234.827 3.45666L235.842 4.86793C236.709 6.11555 238.044 7.93587 239.682 10.3493C244.304 17.1354 248.494 24.3171 252.216 31.8352C254.599 36.5905 257.018 41.9389 259.54 47.7374C262.063 53.5358 264.689 59.7637 267.264 66.4314C270.003 73.3755 272.414 80.4939 274.484 87.7536C275.619 91.5271 276.486 95.4337 277.405 99.4323L280.144 111.561C283.707 126.923 286.538 142.508 288.621 158.245" fill="#E0E0E0"/>
<path d="M275.005 87.4155C275.26 86.8053 275.465 86.1685 275.62 85.5134C275.976 84.276 276.487 82.4455 277.007 80.216C278.117 75.7266 279.477 69.4579 280.951 62.5447C282.425 55.6316 283.864 49.4036 285.025 44.9449C285.606 42.7156 286.091 40.9157 286.438 39.6783C286.653 39.0456 286.81 38.3872 286.905 37.7148C286.603 38.2964 286.358 38.9175 286.178 39.5658C285.744 40.7726 285.181 42.5417 284.54 44.7609C283.239 49.189 281.731 55.4169 280.249 62.3402C278.767 69.2635 277.518 75.3381 276.487 80.0934C276.019 82.2204 275.62 84.0204 275.316 85.452C275.151 86.0907 275.046 86.7493 275.005 87.4155Z" fill="#E0E0E0"/>
<path d="M226.169 67.8218C226.808 68.096 227.466 68.3047 228.136 68.4456C229.41 68.7933 231.256 69.2943 233.51 70C238.034 71.3703 244.232 73.5281 250.976 76.2484C257.72 78.9686 263.736 81.7707 268.035 83.9388C270.193 84.9613 271.918 85.9125 273.114 86.5362C273.719 86.9064 274.352 87.211 275.004 87.4464C274.46 86.9795 273.879 86.5754 273.27 86.2396C272.109 85.5135 270.41 84.5114 268.277 83.3763C264.013 81.065 258.005 78.171 251.245 75.4303C245.475 73.0749 239.608 71.0645 233.666 69.4069C231.386 68.7728 229.523 68.3843 228.231 68.1081C227.553 67.9298 226.862 67.8339 226.169 67.8218Z" fill="#E0E0E0"/>
<path d="M288.803 156.936C288.967 156.733 289.113 156.51 289.237 156.271L290.355 154.226C291.325 152.487 292.661 149.931 294.29 146.74C297.541 140.369 301.796 131.401 306.382 121.44C310.967 111.479 315.154 102.47 318.292 96.027C319.818 92.8976 321.083 90.3206 322.019 88.4082C322.427 87.5799 322.756 86.8946 323.024 86.3628C323.154 86.1264 323.259 85.8724 323.336 85.6061C323.336 85.6061 323.163 85.8209 322.903 86.2709L321.785 88.3161C320.815 90.0547 319.471 92.6113 317.849 95.7917C314.591 102.163 310.334 111.131 305.714 121.102C301.094 131.073 296.951 140.072 293.814 146.515L290.086 154.134L289.072 156.18C288.953 156.415 288.862 156.67 288.803 156.936Z" fill="#E0E0E0"/>
<path d="M225.224 120.203C225.224 120.203 225.423 120.377 225.839 120.643L227.686 121.737L234.491 125.684C240.238 129.019 248.134 133.733 256.845 138.979C265.556 144.226 273.505 148.837 279.313 152.028C282.216 153.633 284.574 154.892 286.247 155.731L288.145 156.681C288.361 156.811 288.592 156.904 288.83 156.958C288.638 156.781 288.428 156.633 288.206 156.517L286.359 155.424L279.555 151.477C273.808 148.142 265.921 143.428 257.2 138.181C248.48 132.935 240.549 128.323 234.741 125.132C231.838 123.527 229.481 122.269 227.807 121.431L225.9 120.479C225.686 120.351 225.459 120.258 225.224 120.203Z" fill="#E0E0E0"/>
<path d="M96.0011 47.816C96.0011 31.1366 110.858 20.5624 126.01 28.9277C129.431 30.8189 132.23 33.9846 133.976 37.9373C137.79 46.6501 136.109 56.6006 132.65 64.8533L120.862 100.114C120.49 101.239 119.84 102.205 118.995 102.886C118.15 103.567 117.151 103.931 116.128 103.931C115.105 103.931 114.106 103.567 113.262 102.886C112.418 102.205 111.767 101.239 111.396 100.114L99.8498 64.6283C95.8281 53.8292 96.0011 47.816 96.0011 47.816ZM110.251 62.3377C120.436 69.3223 130.752 56.4062 125.169 43.6641C124.447 41.9625 123.325 40.5424 121.936 39.5734C111.751 32.5887 101.427 45.5049 107.018 58.247C107.741 59.9486 108.864 61.3687 110.251 62.3377Z" fill="#77D09A"/>
<path d="M-7.99152 390.734C-7.99152 390.878 122.029 391 282.387 391C442.746 391 572.767 390.878 572.767 390.734C572.767 390.592 442.746 390.468 282.387 390.468C122.029 390.468 -7.99152 390.581 -7.99152 390.734Z" fill="#2A2A27"/>
<path d="M562.686 324.507C561.329 325.005 560.07 325.822 558.985 326.908C557.901 327.995 557.013 329.327 556.376 330.827C555.111 333.837 554.45 337.151 554.443 340.512C554.269 346.984 556.541 353.939 559.219 359.594C564.342 355.698 566.388 347.711 567.22 343.579C568.52 337.064 567.523 324.333 562.686 324.507Z" fill="#2F9959"/>
<path d="M552.64 369.226C553.174 367.46 553.302 365.556 553.012 363.712C552.72 361.867 552.021 360.147 550.984 358.724C549.929 357.323 548.648 356.184 547.217 355.372C545.785 354.561 544.232 354.095 542.645 354C541.18 353.887 539.559 354.112 538.562 355.369C538.124 355.996 537.836 356.749 537.726 357.551C537.616 358.353 537.689 359.174 537.939 359.93C538.453 361.437 539.3 362.754 540.391 363.745C543.972 367.335 547.993 370.034 552.64 369.226Z" fill="#2F9959"/>
<path d="M556.055 389.75C556.089 389.305 556.089 388.857 556.055 388.411C556.055 387.47 555.986 386.244 555.942 384.781C555.909 380.756 555.323 376.763 554.209 372.96C553.046 369.142 551.041 365.761 548.401 363.162C547.602 362.396 546.729 361.744 545.801 361.218C545.55 361.075 545.292 360.949 545.029 360.841C544.939 360.789 544.843 360.754 544.743 360.738C545.971 361.493 547.133 362.391 548.21 363.417C550.757 366.039 552.701 369.377 553.862 373.123C554.954 376.902 555.562 380.851 555.666 384.842C555.751 386.376 555.83 387.613 555.899 388.462C555.917 388.896 555.968 389.328 556.055 389.75Z" fill="#2A2A27"/>
<path d="M562.722 334.315C562.655 334.493 562.611 334.682 562.592 334.877C562.522 335.296 562.427 335.828 562.315 336.503C562.072 337.914 561.743 339.97 561.361 342.506C560.59 347.619 559.627 354.614 558.674 362.406C557.721 370.199 557.035 377.287 556.585 382.42C556.359 384.977 556.195 387.063 556.091 388.494C556.047 389.18 556.012 389.722 555.987 390.151C555.972 390.344 555.972 390.54 555.987 390.734C556.037 390.547 556.068 390.355 556.083 390.161C556.126 389.732 556.186 389.19 556.264 388.514C556.412 387.022 556.629 384.966 556.879 382.45C557.409 377.337 558.154 370.271 559.09 362.478C560.026 354.685 560.953 347.65 561.69 342.557C562.029 340.061 562.315 338.016 562.557 336.533C562.644 335.859 562.713 335.316 562.774 334.887C562.778 334.695 562.76 334.502 562.722 334.315Z" fill="#2A2A27"/>
<path d="M560.025 374.453C561.049 370.689 562.818 367.266 565.187 364.469C567.554 361.671 570.454 359.58 573.643 358.366C575.272 357.774 577.318 357.548 578.402 359.104C579.485 360.658 578.913 362.999 578.072 364.748C576.261 368.358 573.585 371.256 570.381 373.075C567.178 374.895 563.589 375.555 560.069 374.975" fill="#2F9959"/>
<path d="M572.16 364.276C571.811 364.35 571.468 364.463 571.137 364.614C570.737 364.75 570.342 364.913 569.958 365.105C569.444 365.34 568.941 365.606 568.45 365.902C567.854 366.241 567.276 366.621 566.716 367.038C566.055 367.499 565.415 368.004 564.801 368.551C563.399 369.815 562.122 371.263 560.995 372.867C559.885 374.49 558.94 376.261 558.179 378.144C557.852 378.967 557.563 379.809 557.312 380.669C557.09 381.417 556.906 382.178 556.757 382.95C556.628 383.573 556.529 384.205 556.462 384.842C556.388 385.326 556.338 385.813 556.314 386.304C556.284 386.722 556.284 387.143 556.314 387.561C556.401 387.561 556.47 385.782 557.077 383.012C557.245 382.257 557.444 381.512 557.676 380.782C557.93 379.941 558.219 379.114 558.543 378.307C559.312 376.471 560.248 374.74 561.334 373.143C562.443 371.568 563.693 370.138 565.061 368.879C565.659 368.329 566.281 367.817 566.925 367.344C567.514 366.874 568.104 366.515 568.658 366.168C570.729 364.88 572.195 364.388 572.16 364.276Z" fill="#2A2A27"/>
<g clip-path="url(#clip1_15_326)">
<path d="M324.095 390.748L451.196 390.147C458.532 390.1 465.552 387.11 470.717 381.828C475.882 376.547 478.771 369.406 478.754 361.969L477.406 38.9462C477.363 31.5042 474.41 24.3832 469.196 19.1444C463.981 13.9057 456.931 10.9769 449.59 11.0001L322.488 11.5914C315.15 11.6376 308.13 14.6302 302.964 19.9138C297.799 25.1973 294.91 32.3411 294.93 39.7798L296.278 362.803C296.321 370.244 299.274 377.365 304.488 382.604C309.703 387.843 316.753 390.771 324.095 390.748Z" fill="#3B455A"/>
<path d="M322.67 22.748L347.311 22.6317C348.115 22.6456 348.907 22.8199 349.644 23.1447C350.381 23.4694 351.047 23.9383 351.605 24.5244C352.163 25.1106 352.601 25.8025 352.895 26.5605C353.188 27.3185 353.332 28.1278 353.316 28.942V33.4688C353.301 34.2836 353.445 35.0933 353.738 35.8519C354.032 36.6105 354.47 37.3031 355.027 37.89C355.585 38.4769 356.251 38.9467 356.988 39.2725C357.725 39.5983 358.518 39.7738 359.322 39.7889L407.352 39.5563C408.157 39.5363 408.949 39.3554 409.684 39.0242C410.419 38.6929 411.082 38.2179 411.636 37.6262C412.19 37.0345 412.622 36.3378 412.909 35.5762C413.197 34.8146 413.333 34.0028 413.31 33.1878V28.661C413.268 27.0162 413.873 25.422 414.989 24.2282C416.106 23.0342 417.645 22.3381 419.267 22.2924H427.94L449.503 22.1858C452.05 22.173 454.575 22.6692 456.933 23.646C459.292 24.6227 461.437 26.0608 463.246 27.8784C465.056 29.6958 466.495 31.8569 467.48 34.2382C468.465 36.6196 468.979 39.1744 468.99 41.7567L470.31 357.053C470.33 362.264 468.309 367.269 464.691 370.97C461.072 374.671 456.154 376.763 451.013 376.789L324.161 377.38C321.615 377.392 319.091 376.894 316.734 375.917C314.377 374.94 312.232 373.501 310.424 371.685C308.615 369.867 307.177 367.706 306.192 365.325C305.207 362.945 304.694 360.391 304.683 357.81L303.364 42.5225C303.348 39.9385 303.836 37.3769 304.798 34.984C305.761 32.5912 307.179 30.4143 308.972 28.5776C310.765 26.7411 312.898 25.2808 315.248 24.2805C317.599 23.2802 320.121 22.7594 322.67 22.748Z" fill="#FAFAFA"/>
<path d="M469.153 79.5607H448.365L429.815 98.3659L449.092 117.917L468.934 97.8133L469.153 79.5607Z" fill="#EBEBEB"/>
<path d="M425.578 90.1168L435.991 79.5607H412.554L425.578 90.1168Z" fill="#EBEBEB"/>
<path d="M416.465 98.7361L398.211 80.2411H334.431C334.431 80.2411 324.668 124.443 363.118 152.815L416.465 98.7361Z" fill="#EBEBEB"/>
<path d="M424.278 104.639L443.805 124.443L389.768 179.22L370.242 158.758L424.278 104.639Z" fill="#EBEBEB"/>
<path d="M469.382 135.656L457.151 122.783L469.152 110.618L469.382 135.656Z" fill="#EBEBEB"/>
<path d="M449.828 130.373L468.627 149.43V175.913L429.814 216.17L396.93 185.15L449.828 130.373Z" fill="#EBEBEB"/>
<path d="M355.823 158.34C355.823 158.34 315.547 128.407 328.571 80.2113H303.528L303.834 216.258L355.823 158.34Z" fill="#EBEBEB"/>
<path d="M363.368 166.221L382.846 186.838L323.13 247.363L304.866 227.744L363.368 166.221Z" fill="#EBEBEB"/>
<path d="M390.981 192.478L421.581 223.284L360.373 284.905L329.822 254.962L390.981 192.478Z" fill="#EBEBEB"/>
<path d="M407.019 346.826L360.231 297.651L315.719 343.647L407.019 346.826Z" fill="#EBEBEB"/>
<path d="M352.935 291.315L304.168 242.372C304.168 244.544 304.588 343.881 304.588 343.881L352.935 291.315Z" fill="#EBEBEB"/>
<path d="M394.653 263.814L367.009 291.836L421.581 348.941L446.805 318.271L394.653 263.814Z" fill="#EBEBEB"/>
<path d="M469.343 322.254C466.733 321.983 399.884 258.53 399.884 258.53L469.343 185.568V322.254Z" fill="#EBEBEB"/>
<path d="M470.31 336.707L454.217 322.254L431.928 348.94H470.31V338.733" fill="#EBEBEB"/>
<path d="M449.483 60.3501C451.183 59.0727 452.782 57.6629 454.264 56.1335V55.7651L454.208 55.707L454.093 55.5907L453.854 55.3678L453.395 54.9412L452.524 54.127L451.023 52.7699C450.59 52.3159 450.094 51.9275 449.55 51.6165C449.869 52.1181 450.248 52.5772 450.679 52.9832L452.114 54.4178L452.965 55.2514L453.424 55.6876L453.653 55.9106L453.767 56.0269L453.834 56.0851V55.7167C452.267 57.1443 450.813 58.6934 449.483 60.3501Z" fill="#2A2A27"/>
<path d="M317.316 52.952C317.316 53.159 317.376 53.3615 317.49 53.5336C317.603 53.7058 317.764 53.84 317.953 53.9192C318.142 53.9984 318.349 54.0192 318.55 53.9787C318.75 53.9384 318.934 53.8387 319.079 53.6922C319.223 53.5458 319.321 53.3592 319.361 53.1562C319.401 52.9531 319.381 52.7427 319.302 52.5514C319.224 52.3601 319.092 52.1966 318.922 52.0815C318.752 51.9665 318.553 51.9052 318.348 51.9052C318.074 51.9052 317.812 52.0154 317.618 52.2117C317.424 52.4081 317.316 52.6743 317.316 52.952Z" fill="#2A2A27"/>
<path d="M317.612 55.8223C317.466 55.9699 317.366 56.1583 317.326 56.3633C317.285 56.5683 317.306 56.7808 317.385 56.974C317.464 57.1672 317.597 57.3323 317.769 57.4485C317.94 57.5646 318.142 57.6267 318.348 57.6267C318.554 57.6267 318.756 57.5646 318.927 57.4485C319.098 57.3323 319.232 57.1672 319.311 56.974C319.39 56.7808 319.41 56.5683 319.37 56.3633C319.329 56.1583 319.23 55.9699 319.084 55.8223C318.887 55.6269 318.623 55.5175 318.348 55.5175C318.072 55.5175 317.808 55.6269 317.612 55.8223Z" fill="#2A2A27"/>
<path d="M317.316 60.1837C317.316 60.3907 317.376 60.5932 317.49 60.7653C317.603 60.9375 317.764 61.0717 317.953 61.1508C318.142 61.2301 318.349 61.2509 318.55 61.2104C318.75 61.1701 318.934 61.0704 319.079 60.9239C319.223 60.7775 319.321 60.591 319.361 60.3879C319.401 60.1849 319.381 59.9744 319.302 59.7831C319.224 59.5918 319.092 59.4283 318.922 59.3132C318.752 59.1982 318.553 59.1368 318.348 59.1368C318.074 59.1368 317.812 59.2471 317.618 59.4434C317.424 59.6398 317.316 59.906 317.316 60.1837Z" fill="#2A2A27"/>
<path d="M362.124 57.2469H406.856V61.0274H362.124V57.2469Z" fill="#2A2A27"/>
<path d="M366.981 125.111C366.981 107.449 385.292 96.2535 403.958 105.113C408.178 107.11 411.63 110.463 413.778 114.652C418.483 123.87 416.408 134.406 412.143 143.15L397.618 180.479C397.153 181.667 396.346 182.684 395.302 183.399C394.258 184.114 393.025 184.494 391.765 184.486C390.505 184.481 389.277 184.089 388.239 183.364C387.202 182.638 386.405 181.613 385.952 180.421L371.714 142.908C366.78 131.479 366.981 125.111 366.981 125.111ZM384.518 140.484C397.073 147.881 409.79 134.203 402.906 120.71C402.002 118.932 400.624 117.447 398.928 116.425C386.373 109.029 373.655 122.707 380.54 136.199C381.443 137.978 382.822 139.462 384.518 140.484Z" fill="#2F9959"/>
</g>
</g>
<defs>
<clipPath id="clip0_15_326">
<rect width="588" height="391" fill="white" transform="translate(-9)"/>
</clipPath>
<clipPath id="clip1_15_326">
<rect width="185" height="380" fill="white" transform="translate(294 11)"/>
</clipPath>
</defs>
</svg>
