<?xml version="1.0" encoding="UTF-8"?> <svg xmlns="http://www.w3.org/2000/svg" width="93" height="93" viewBox="0 0 93 93" fill="none"> <path d="M46.5 0L50.1764 5.6521L54.8029 0.747272L57.411 6.96499L62.8389 2.96508L64.2949 9.54856L70.3498 6.58213L70.6068 13.3198L77.0941 11.4822L76.144 18.1574L82.8552 17.5077L80.7284 23.9061L87.4477 24.4651L84.2126 30.3809L90.7241 32.1307L86.4847 37.3737L92.5792 40.2582L87.4717 44.66L92.9532 48.5862L87.1418 52.0053L91.8342 56.8472L85.5057 59.1737L89.258 64.7757L82.6159 65.9348L85.3077 72.1167L78.5653 72.0712L80.11 78.6344L73.484 77.3857L73.832 84.1193L67.5355 81.7076L66.6756 88.3951L60.9109 84.8978L58.8707 91.3243L53.8232 86.8539L50.6682 92.8128L46.5 87.513L42.3318 92.8128L39.1768 86.8539L34.1293 91.3243L32.0891 84.8978L26.3244 88.3951L25.4645 81.7076L19.168 84.1193L19.516 77.3857L12.89 78.6344L14.4347 72.0712L7.69234 72.1167L10.3841 65.9348L3.74196 64.7757L7.49432 59.1737L1.16585 56.8472L5.85818 52.0053L0.0468216 48.5862L5.5283 44.66L0.420837 40.2582L6.51528 37.3737L2.27587 32.1307L8.78741 30.3809L5.55231 24.4651L12.2716 23.9061L10.1448 17.5077L16.856 18.1574L15.9058 11.4822L22.3932 13.3198L22.6502 6.58213L28.7051 9.54856L30.1611 2.96508L35.589 6.96499L38.1971 0.747272L42.8236 5.6521L46.5 0Z" fill="#2F6099"></path> </svg> 